<svg width="350" height="55" viewBox="0 0 350 55" fill="none" xmlns="http://www.w3.org/2000/svg">
<path d="M0.984375 10.0781L1.6875 0.3125H44.1094L44.8125 10.0781H42.7812L42.7031 9.29688C42.6771 8.75 42.5078 8.09896 42.1953 7.34375C41.9089 6.5625 41.4922 5.79427 40.9453 5.03906C40.4245 4.25781 39.5781 3.60677 38.4062 3.08594C37.2604 2.53906 35.9062 2.26562 34.3438 2.26562H25.4375V55H20.3594V2.26562H11.4531C9.89062 2.26562 8.52344 2.55208 7.35156 3.125C6.20573 3.67188 5.35938 4.29688 4.8125 5C4.29167 5.67708 3.875 6.47135 3.5625 7.38281C3.27604 8.26823 3.10677 8.89323 3.05469 9.25781C3.02865 9.59635 3.01562 9.86979 3.01562 10.0781H0.984375ZM91.1406 0.3125H96.375V55H91.1406V28.4375H57.7031V55H52.3906V0.3125H57.7031V26.4844H91.1406V0.3125ZM112.547 0.3125H147.469L149.344 10.1562H147.469C147 8.72396 146.518 7.5651 146.023 6.67969C145.555 5.79427 144.891 5 144.031 4.29688C143.198 3.56771 142.143 3.04688 140.867 2.73438C139.591 2.42188 138.016 2.26562 136.141 2.26562H117.312V25.2344H143.875V29.2969H117.312V50.3125H149.891V55H112.547V0.3125ZM181.844 0.3125L203.328 55H197.547L189.578 34.6875H165.438L157.859 55H155.75L176.141 0.3125H181.844ZM167.391 30H187.781L177.391 3.20312L167.391 30ZM198.562 10.0781L199.266 0.3125H241.688L242.391 10.0781H240.359L240.281 9.29688C240.255 8.75 240.086 8.09896 239.773 7.34375C239.487 6.5625 239.07 5.79427 238.523 5.03906C238.003 4.25781 237.156 3.60677 235.984 3.08594C234.839 2.53906 233.484 2.26562 231.922 2.26562H223.016V55H217.938V2.26562H209.031C207.469 2.26562 206.102 2.55208 204.93 3.125C203.784 3.67188 202.938 4.29688 202.391 5C201.87 5.67708 201.453 6.47135 201.141 7.38281C200.854 8.26823 200.685 8.89323 200.633 9.25781C200.607 9.59635 200.594 9.86979 200.594 10.0781H198.562ZM249.031 0.3125H283.953L285.828 10.1562H283.953C283.484 8.72396 283.003 7.5651 282.508 6.67969C282.039 5.79427 281.375 5 280.516 4.29688C279.682 3.56771 278.628 3.04688 277.352 2.73438C276.076 2.42188 274.5 2.26562 272.625 2.26562H253.797V25.2344H280.359V29.2969H253.797V50.3125H286.375V55H249.031V0.3125ZM300.828 0.3125H318.953C322.417 0.3125 325.438 0.755208 328.016 1.64062C330.62 2.5 332.638 3.67188 334.07 5.15625C335.503 6.64062 336.557 8.25521 337.234 10C337.911 11.7188 338.25 13.5677 338.25 15.5469C338.25 22.0833 334.76 26.7969 327.781 29.6875C331.245 35.3125 333.654 39.1667 335.008 41.25C338.159 46.1458 340.698 49.362 342.625 50.8984C344.448 52.3568 346.635 53.099 349.188 53.125L349.266 55H344.031C342.339 55 340.802 54.7266 339.422 54.1797C338.068 53.6068 336.896 52.8776 335.906 51.9922C334.943 51.1068 333.901 49.8698 332.781 48.2812C331.661 46.6927 330.646 45.1172 329.734 43.5547C328.849 41.9922 327.638 39.987 326.102 37.5391C324.565 35.0911 323.042 32.8125 321.531 30.7031H305.594V55H300.828V0.3125ZM305.594 5.07812V28.75H318.406C320.099 28.75 321.635 28.6458 323.016 28.4375C324.396 28.2292 325.737 27.8516 327.039 27.3047C328.341 26.7578 329.422 26.0417 330.281 25.1562C331.167 24.2708 331.87 23.099 332.391 21.6406C332.911 20.1823 333.172 18.4896 333.172 16.5625C333.172 14.8438 332.898 13.3203 332.352 11.9922C331.805 10.638 330.919 9.4401 329.695 8.39844C328.471 7.33073 326.766 6.51042 324.578 5.9375C322.391 5.36458 319.76 5.07812 316.688 5.07812H305.594Z" fill="#ECA600"/>
</svg>
